<svg width="869" height="999" viewBox="0 0 869 999" fill="none" xmlns="http://www.w3.org/2000/svg">
<path d="M521.5 0C809.531 0 1043 223.62 1043 499.5C1043 775.38 809.531 999 521.5 999C233.469 999 0 775.38 0 499.5C0 223.62 233.469 0 521.5 0ZM805.261 609.296H337.019C331.964 609.324 327.116 611.226 323.493 614.604L230.992 702.484C229.649 703.755 228.733 705.381 228.36 707.153C227.987 708.926 228.175 710.764 228.9 712.434C229.624 714.103 230.852 715.528 232.427 716.525C234.002 717.522 235.851 718.047 237.739 718.031H705.981C711.036 718.003 715.884 716.101 719.507 712.724L812.008 624.812C813.34 623.54 814.246 621.917 814.612 620.15C814.979 618.383 814.788 616.551 814.065 614.888C813.342 613.225 812.118 611.805 810.551 610.81C808.983 609.814 807.142 609.287 805.261 609.296ZM705.981 444.087H237.739L235.522 444.305C233.869 444.669 232.348 445.451 231.117 446.569C229.887 447.687 228.992 449.101 228.526 450.664C228.06 452.226 228.04 453.879 228.468 455.451C228.896 457.024 229.756 458.457 230.959 459.602L323.526 547.514L325.807 549.388C329.066 551.573 332.978 552.822 337.019 552.822H805.261L807.478 552.603C809.131 552.239 810.652 551.458 811.883 550.339C813.113 549.221 814.008 547.807 814.474 546.245C814.94 544.683 814.96 543.029 814.532 541.457C814.104 539.885 813.244 538.451 812.041 537.306L719.474 449.394L717.193 447.521C713.912 445.3 709.998 444.101 705.981 444.087ZM805.261 280.969H337.019C331.964 280.997 327.116 282.899 323.493 286.276L230.992 374.188C229.66 375.46 228.754 377.083 228.388 378.85C228.021 380.617 228.212 382.449 228.935 384.112C229.658 385.775 230.882 387.195 232.449 388.19C234.017 389.186 235.858 389.713 237.739 389.704H705.981C711.036 389.676 715.884 387.774 719.507 384.396L812.008 296.516C813.351 295.245 814.267 293.619 814.64 291.847C815.013 290.074 814.825 288.236 814.1 286.566C813.376 284.897 812.148 283.472 810.573 282.475C808.998 281.478 807.149 280.953 805.261 280.969Z" fill="url(#paint0_linear_66_181)" fill-opacity="0.41"/>
<defs>
<linearGradient id="paint0_linear_66_181" x1="944" y1="293.5" x2="54.3459" y2="669.69" gradientUnits="userSpaceOnUse">
<stop stop-color="#FE5BAA"/>
<stop offset="0.999872" stop-color="#CB4988" stop-opacity="0"/>
</linearGradient>
</defs>
</svg>
