<svg width="22" height="24" viewBox="0 0 22 24" fill="none" xmlns="http://www.w3.org/2000/svg">
<path d="M6.34497 6.9281C6.44002 6.97704 6.53661 7.06703 6.62371 7.1321C6.79901 7.26446 6.9772 7.39282 7.15828 7.5172C7.73597 7.90801 8.33668 8.25948 8.96039 8.57161C8.84125 8.62214 8.72552 8.67927 8.60538 8.72815C8.10486 8.90866 7.51575 8.92962 7.01758 8.72827C6.6955 8.59806 6.39261 8.36278 6.25687 8.03463C6.10233 7.66114 6.19609 7.28581 6.34497 6.9281Z" fill="#FEFEFE"/>
<path d="M15.6754 6.93399C15.6916 6.94171 15.7015 6.94948 15.711 6.96579C15.8688 7.23817 15.9117 7.67032 15.8109 7.96767C15.7023 8.28769 15.4355 8.53033 15.1382 8.67615C14.6171 8.93162 13.9872 8.92008 13.4476 8.73263C13.3221 8.68781 13.2019 8.62986 13.083 8.57002C13.9965 8.1003 14.868 7.57138 15.6754 6.93399Z" fill="#FEFEFE"/>
<path d="M10.8664 8.33988C11.0936 8.30366 11.3364 8.35413 11.542 8.4529C11.7281 8.54241 11.8948 8.67545 12.043 8.81785C12.6979 9.44706 12.8913 10.3528 12.9149 11.229C12.9215 11.4746 12.8631 11.8403 12.9472 12.0662C12.9691 12.125 12.9976 12.1644 13.0452 12.2055C13.1999 12.3391 13.408 12.4338 13.5852 12.5359C13.7853 12.6512 13.9853 12.7798 14.1943 12.8777L14.1776 12.8861C13.882 13.0378 13.5966 13.2523 13.3497 13.472C12.0495 14.629 11.5818 16.3292 11.0636 17.9259C11.0532 17.9644 11.0425 17.9982 11.0257 18.0347L11.0111 18.0356C10.9438 17.8726 10.9 17.6905 10.8469 17.5219C10.7448 17.1954 10.6386 16.8703 10.5283 16.5464C10.1048 15.3165 9.52091 14.1093 8.47409 13.2916C8.27833 13.1387 8.06774 12.9892 7.84424 12.8803C8.05036 12.7804 8.94406 12.2887 9.05053 12.1427C9.09623 12.08 9.11767 12.0008 9.12798 11.9249C9.14983 11.764 9.13298 11.5873 9.13175 11.4239C9.12892 11.1658 9.1417 10.9084 9.17009 10.6518C9.23098 10.1456 9.37745 9.62816 9.66855 9.20401C9.9543 8.7877 10.3599 8.43329 10.8664 8.33988Z" fill="#FEFEFE"/>
<path d="M10.7894 0.0230129C10.827 0.0191672 10.8653 0.0193615 10.9031 0.0183838C11.3955 0.00562184 11.9053 0.0653096 12.3901 0.148236C12.4735 0.161789 12.5566 0.176675 12.6394 0.192894C12.7223 0.209117 12.8048 0.226665 12.8872 0.245538C12.9695 0.264411 13.0514 0.284602 13.1331 0.306109C13.2147 0.327617 13.296 0.35043 13.3769 0.374548C13.4578 0.398667 13.5383 0.424079 13.6184 0.450785C13.6985 0.47749 13.7782 0.505474 13.8574 0.534736C13.9366 0.564001 14.0153 0.59453 14.0935 0.62632C14.1717 0.658114 14.2494 0.691155 14.3265 0.725442C14.4037 0.759729 14.4803 0.795247 14.5563 0.831996C14.6323 0.868745 14.7077 0.906705 14.7825 0.945876C14.8573 0.985048 14.9315 1.02541 15.005 1.06697C15.0784 1.10852 15.1513 1.15124 15.2234 1.19513C15.2955 1.23902 15.3669 1.28406 15.4376 1.33025C15.5082 1.37644 15.5782 1.42375 15.6474 1.47218C15.7165 1.52061 15.7848 1.57014 15.8524 1.62077C15.92 1.6714 15.9867 1.7231 16.0526 1.77587C16.3332 1.99977 16.5933 2.24571 16.8532 2.49278C16.8855 2.48875 16.9176 2.48439 16.9498 2.4797C17.7245 2.36541 18.3764 1.74777 18.8244 1.14386L18.8156 1.17135C18.1419 3.24951 15.8264 5.34614 14.062 6.53842C13.5207 6.9042 12.9656 7.22057 12.3829 7.51398C12.0449 7.2572 11.6729 7.10473 11.2535 7.04501C10.67 6.95526 10.1227 7.19372 9.65262 7.51339C7.50187 6.47723 4.95642 4.3647 3.74193 2.29308C3.52792 1.92804 3.3672 1.55385 3.21997 1.15781C3.31738 1.26939 3.40201 1.39126 3.50154 1.50189C3.95165 2.00248 4.51195 2.40018 5.18875 2.49503C6.86713 0.872114 8.45687 0.174891 10.7894 0.0230129Z" fill="#FEFEFE"/>
<path d="M3.99334 4.41206C4.34817 4.93409 4.86937 5.59191 5.32944 6.02201C5.06336 6.51635 4.8659 7.02736 4.85942 7.59603C4.85883 7.63556 4.85922 7.6751 4.86059 7.71464C4.86201 7.75417 4.86438 7.79365 4.86772 7.83307C4.8711 7.87249 4.87545 7.91179 4.88079 7.95097C4.88609 7.99019 4.89238 8.02924 4.89964 8.06811C4.90694 8.10698 4.91519 8.14565 4.92438 8.18413C4.93356 8.2226 4.94371 8.26082 4.95482 8.29879C4.96593 8.33676 4.97799 8.37441 4.99098 8.41175C5.00398 8.44912 5.0179 8.48615 5.03274 8.52282C5.04758 8.55949 5.06332 8.59577 5.07997 8.63165C5.09666 8.66754 5.1142 8.70297 5.13262 8.73795C5.15103 8.77297 5.17031 8.8075 5.19045 8.84154C5.21059 8.87558 5.23158 8.90909 5.25341 8.94207C5.27524 8.97509 5.29785 9.00752 5.32125 9.03936C5.34469 9.07124 5.36892 9.10252 5.39392 9.13318C5.41893 9.1638 5.44469 9.1938 5.47119 9.22317C5.49769 9.25257 5.5249 9.28127 5.55282 9.30927C6.17926 9.94849 7.03785 10.1871 7.91052 10.1935C7.82624 10.5796 7.81235 10.9982 7.80569 11.3921C6.92048 11.8674 6.0693 12.4104 5.18886 12.8955L7.09233 13.9607C7.38856 14.1278 7.65805 14.3014 7.88949 14.5539C9.15239 15.9315 9.96304 18.8032 10.4892 20.6123C10.6645 21.2152 10.8506 21.8162 11.0188 22.4209C11.1799 21.842 11.361 21.2666 11.529 20.6894C12.0508 18.896 12.9806 15.5622 14.3603 14.3507C14.6379 14.1069 14.9866 13.9384 15.3077 13.7586C15.8197 13.4718 16.3411 13.1952 16.8452 12.8951C15.9643 12.412 15.0984 11.8912 14.2307 11.3842C14.2206 10.9818 14.1934 10.5912 14.1381 10.1925C14.6625 10.1983 15.1814 10.107 15.6592 9.88606C16.2836 9.59743 16.8039 9.0863 17.0422 8.43483C17.2551 7.85268 17.2075 7.19615 16.9916 6.62259C16.9141 6.4167 16.8113 6.21641 16.7177 6.01718C17.2001 5.50434 17.6347 4.9759 18.0515 4.40823C18.1338 4.58303 18.2313 4.7501 18.3147 4.92437C18.5123 5.33681 18.6777 5.76178 18.8108 6.19927C19.1817 7.4306 19.1428 8.52394 19.1419 9.79071C19.141 10.8198 19.1335 11.8464 19.2042 12.8737C19.3651 15.1569 19.9971 17.633 21.1035 19.6411C20.6122 19.2676 20.1382 18.8622 19.6573 18.4748C19.2165 18.1196 18.7565 17.7751 18.3325 17.4004C17.6932 18.4758 17.0136 19.528 16.3667 20.5991C16.1791 20.3818 15.9489 20.1871 15.7392 19.9908C15.2627 19.5447 14.7673 19.1065 14.3078 18.6433C14.2249 18.8087 14.115 18.9678 14.0178 19.1255L13.4624 20.0256L11.7597 22.7884L11.2947 23.5425C11.2025 23.6923 11.1 23.8415 11.024 24C10.7512 23.5382 10.4629 23.0845 10.1815 22.6279L8.65039 20.1437C8.34456 19.6476 8.01859 19.1553 7.73361 18.6471C7.44238 18.9046 7.16365 19.1803 6.87978 19.4461C6.4756 19.8246 6.06477 20.2003 5.67196 20.5903L3.71095 17.4048L0.925049 19.6466C1.16108 19.2605 1.34888 18.8214 1.52554 18.4053C1.63411 18.1436 1.73639 17.8795 1.8324 17.613C1.92843 17.3465 2.01809 17.0778 2.10136 16.8071C2.18464 16.5363 2.26143 16.2637 2.33175 15.9893C2.40211 15.7149 2.46589 15.4389 2.52309 15.1615C2.58034 14.884 2.63094 14.6054 2.67492 14.3256C2.71893 14.0457 2.75627 13.765 2.78693 13.4833C2.81759 13.2017 2.84156 12.9195 2.85884 12.6368C2.87607 12.354 2.88662 12.071 2.89046 11.7877C2.90291 10.9812 2.90676 10.1747 2.90201 9.36816C2.90095 8.92164 2.88616 8.46999 2.91119 8.02429C2.98304 6.74415 3.37362 5.5299 3.99334 4.41206Z" fill="#FEFEFE"/>
</svg>
